<svg xmlns="http://www.w3.org/2000/svg" width="308" height="292" viewBox="0 0 1232 1168" role="img" aria-labelledby="title desc" color="#FFFFFF">
  <title id="title">Aello Software</title>
  <desc id="desc">Canonical stacked Aello Software logo for dark backgrounds.</desc>
  <defs>
    <g id="aello-source-icon-navy" fill="currentColor" fill-rule="evenodd">
      <path id="aello-icon-navy-outline" d="M0 0 C0.37 -0 0.37 -0 2.241 -0.003 C3.801 -0.004 5.361 -0.002 6.921 0.002 C9.304 0.008 11.687 0.002 14.07 -0.004 C15.589 -0.003 17.107 -0.002 18.625 0 C18.98 -0.001 18.98 -0.001 20.778 -0.006 C24.134 0.01 27.086 0.241 30.312 1.133 C32.254 1.322 34.198 1.473 36.145 1.598 C37.273 1.676 38.402 1.754 39.564 1.834 C41.926 1.991 44.288 2.144 46.65 2.295 C52.499 2.704 57.694 3.368 63.312 5.133 C65.745 5.446 68.183 5.715 70.625 5.945 C79.844 6.984 88.475 9.371 97.312 12.133 C97.774 12.276 97.774 12.276 100.112 13.001 C136.581 24.428 170.25 41.458 200.312 65.133 C200.984 65.66 201.656 66.188 202.348 66.731 C239.302 95.893 269.745 132.281 291.125 174.331 C295.747 183.712 299.714 193.319 303.312 203.133 C303.474 203.566 303.474 203.566 304.291 205.759 C312.214 227.214 318.133 248.646 319.63 271.511 C319.954 276.388 320.446 281.1 321.348 285.906 C322.595 293.035 322.662 300.101 322.625 307.32 C322.624 308.013 322.623 308.705 322.622 309.418 C322.588 321.939 321.516 334.172 319.684 346.563 C319.356 348.832 319.068 351.098 318.809 353.375 C315.775 379.23 307.526 404.284 297.312 428.133 C296.982 428.916 296.653 429.7 296.312 430.507 C291.96 440.813 287.149 450.573 281.312 460.133 C280.934 460.759 280.555 461.384 280.165 462.029 C273.917 472.319 267.27 482.311 260.312 492.133 C259.937 492.663 259.937 492.663 258.039 495.348 C249.64 506.884 239.663 516.868 229.641 526.979 C228.227 528.406 226.816 529.836 225.406 531.267 C219.673 537.007 213.769 542.225 207.312 547.133 C206.381 547.85 205.449 548.568 204.489 549.308 C197.704 554.476 190.743 559.346 183.641 564.063 C181.941 565.193 180.248 566.331 178.555 567.471 C166.834 575.312 154.781 582.207 141.938 588.07 C140.825 588.58 139.712 589.089 138.565 589.614 C127.344 594.678 115.951 599.125 104.312 603.133 C103.379 603.456 102.446 603.78 101.484 604.113 C79.167 611.712 56.152 615.459 32.661 616.915 C30.312 617.133 30.312 617.133 27.582 617.645 C23.487 618.256 19.498 618.295 15.363 618.301 C14.51 618.304 13.657 618.307 12.778 618.311 C10.977 618.316 9.175 618.318 7.374 618.318 C4.651 618.32 1.928 618.338 -0.795 618.357 C-8.821 618.383 -16.525 618.357 -24.403 616.621 C-27.372 615.987 -30.318 615.745 -33.34 615.501 C-73.305 612.244 -115.057 595.286 -149.698 575.703 C-162.696 568.158 -162.696 568.158 -166.688 564.133 C-167.605 561.543 -167.605 561.543 -167.688 559.133 C-165.438 556.883 -165.438 556.883 -162.688 555.133 C-159.15 553.954 -156.229 553.66 -152.51 553.704 C-147.112 554.524 -142.9 557.604 -138.375 560.508 C-136.255 561.805 -134.131 563.095 -132.004 564.379 C-130.946 565.018 -129.888 565.657 -128.797 566.316 C-121.053 570.841 -112.894 574.534 -104.688 578.133 C-103.965 578.453 -103.243 578.773 -102.499 579.103 C-83.737 587.289 -63.251 592.837 -42.996 595.66 C-39.688 596.133 -39.688 596.133 -37.951 596.629 C-34.714 597.349 -31.462 597.486 -28.16 597.668 C-27.424 597.711 -26.688 597.754 -25.929 597.799 C-23.536 597.937 -21.143 598.067 -18.75 598.195 C-17.932 598.24 -17.113 598.284 -16.27 598.329 C1.675 599.285 19.31 599.369 37.25 598.258 C38.55 598.18 39.85 598.101 41.189 598.021 C42.414 597.936 43.64 597.852 44.902 597.766 C45.994 597.692 47.086 597.619 48.211 597.543 C51.457 597.114 54.217 596.181 57.312 595.133 C59.455 594.784 61.606 594.484 63.762 594.227 C102.987 588.919 139.092 571.296 172.277 550.434 C178.356 546.513 184.038 542.242 189.57 537.588 C191.497 535.978 193.452 534.404 195.41 532.832 C207.833 522.816 220.253 512.595 230.09 499.945 C231.706 497.9 233.334 495.95 235.066 494.008 C251.701 475.335 264.668 453.699 275.312 431.133 C275.479 430.782 275.479 430.782 276.32 429.005 C281.804 417.32 286.357 405.417 290.312 393.133 C290.621 392.175 290.93 391.218 291.248 390.231 C295.284 377.521 298.448 365.021 299.98 351.763 C300.221 349.86 300.505 347.963 300.816 346.071 C302.717 333.929 302.709 321.836 302.688 309.57 C302.687 309.006 302.687 309.006 302.687 306.149 C302.653 288.152 301.752 270.839 298.312 253.133 C298.131 252.153 297.949 251.173 297.761 250.164 C293.737 228.962 286.647 208.561 277.312 189.133 C276.993 188.458 276.674 187.784 276.345 187.089 C266.625 166.648 254.83 147.23 239.93 130.148 C237.49 127.337 235.143 124.473 232.812 121.57 C227.885 115.53 222.668 109.792 217.312 104.133 C216.437 103.203 215.562 102.274 214.66 101.316 C208.3 94.75 201.502 89.134 194.232 83.619 C191.967 81.865 189.753 80.054 187.531 78.246 C163.711 59.164 135.836 45.584 107.312 35.133 C106.408 34.797 105.504 34.461 104.573 34.114 C90.755 29.032 76.781 25.777 62.312 23.133 C61.443 22.973 60.574 22.813 59.679 22.648 C57.288 22.215 54.895 21.794 52.5 21.383 C52.163 21.325 52.163 21.325 50.458 21.032 C40.972 19.491 31.499 18.976 21.898 18.965 C21.371 18.963 21.371 18.963 18.705 18.955 C16.488 18.95 14.271 18.947 12.054 18.948 C8.717 18.945 5.38 18.927 2.043 18.908 C-13.481 18.867 -28.413 19.751 -43.625 23.008 C-44.459 23.182 -45.292 23.357 -46.151 23.536 C-47.852 23.894 -49.552 24.254 -51.251 24.618 C-53.535 25.101 -55.822 25.554 -58.113 26 C-94.584 33.299 -130.893 49.704 -161 71.469 C-170.442 78.632 -179.592 86.029 -188.352 94.016 C-190.457 95.924 -192.594 97.783 -194.75 99.633 C-201.956 105.924 -208.556 112.798 -214.688 120.133 C-215.157 120.694 -215.627 121.255 -216.11 121.833 C-222.972 130.065 -229.613 138.352 -235.498 147.32 C-236.34 148.603 -237.188 149.881 -238.041 151.156 C-255.247 176.954 -268.995 206.037 -276.688 236.133 C-277.045 237.474 -277.403 238.815 -277.762 240.156 C-282.343 257.577 -284.839 274.54 -284.855 292.586 C-284.859 293.844 -284.862 295.103 -284.866 296.399 C-284.871 299.048 -284.873 301.697 -284.873 304.346 C-284.873 307.03 -284.88 309.714 -284.893 312.398 C-285.026 340.581 -285.026 340.581 -282.688 353.133 C-282.473 354.53 -282.259 355.927 -282.047 357.324 C-275.523 393.416 -262.112 432.99 -240.844 463.148 C-240.132 464.133 -239.421 465.118 -238.688 466.133 C-237.737 467.501 -236.79 468.871 -235.844 470.242 C-230.686 477.687 -225.438 484.96 -219.586 491.879 C-218.408 493.278 -217.26 494.704 -216.164 496.168 C-214.875 497.883 -214.875 497.883 -212.688 500.133 C-212.065 500.142 -211.442 500.151 -210.801 500.16 C-210.103 499.821 -209.406 499.482 -208.688 499.133 C-207.164 497.084 -205.93 495.158 -204.688 492.945 C-204.305 492.286 -203.923 491.627 -203.529 490.948 C-197.546 480.545 -191.898 469.948 -186.207 459.384 C-179.934 447.752 -173.467 436.27 -166.758 424.883 C-163.237 418.877 -159.875 412.822 -156.688 406.633 C-152.956 399.388 -148.949 392.341 -144.812 385.32 C-136.711 371.558 -128.829 357.672 -121.812 343.32 C-117.342 334.177 -112.27 325.37 -107.273 316.508 C-99.84 303.32 -92.639 290.019 -85.688 276.57 C-81.887 269.223 -77.953 261.981 -73.812 254.82 C-65.361 240.204 -57.485 225.276 -49.559 210.371 C-48.164 207.75 -46.77 205.129 -45.375 202.508 C-45.031 201.861 -44.687 201.214 -44.332 200.547 C-40.35 193.066 -36.332 185.614 -32.123 178.257 C-28.731 172.292 -25.522 166.23 -22.299 160.172 C-17.46 151.086 -12.599 142.014 -7.5 133.07 C-7.067 132.298 -6.634 131.525 -6.188 130.729 C-4.569 127.927 -3.043 125.501 -0.789 123.168 C1.312 122.133 1.312 122.133 4.371 121.664 C5.486 121.654 6.601 121.643 7.75 121.633 C8.862 121.602 9.975 121.571 11.121 121.539 C12.174 121.735 13.227 121.931 14.312 122.133 C17.9 124.793 19.903 127.976 22.074 131.801 C23.058 133.636 24.033 135.476 25 137.32 C26.071 139.323 27.143 141.326 28.215 143.328 C28.742 144.318 29.269 145.309 29.812 146.329 C31.853 150.142 33.952 153.921 36.062 157.695 C36.877 159.159 37.69 160.622 38.504 162.086 C40.021 164.814 41.541 167.542 43.062 170.268 C50.976 184.459 58.719 198.712 66.137 213.17 C71.323 223.279 76.697 233.256 82.312 243.133 C87.508 252.279 92.575 261.468 97.446 270.792 C101.8 279.107 106.339 287.316 110.878 295.531 C113.857 300.936 116.808 306.357 119.757 311.778 C122.283 316.421 124.82 321.056 127.387 325.676 C132.479 334.868 137.416 344.112 142 353.57 C142.422 354.428 142.845 355.286 143.28 356.17 C145.506 360.851 147.193 364.909 147.312 370.133 C145.196 372.507 143.988 373.676 141.312 375.133 C138.25 376.258 138.25 376.258 135.312 376.133 C130.685 372.315 128.247 367.805 125.562 362.508 C125.164 361.745 124.766 360.982 124.355 360.195 C122.798 357.186 121.386 354.355 120.312 351.133 C112.477 347.919 103.98 347.616 95.625 347.695 C94.49 347.704 93.355 347.712 92.186 347.72 C78.076 348.002 65.82 351.178 53.102 357.219 C41.22 363.108 30.921 370.318 22.466 380.638 C17.878 386.449 14.225 392.533 11 399.196 C9.689 401.852 8.474 403.977 6.332 406.043 C4.312 407.133 4.312 407.133 0.375 407.445 C-2.106 407.334 -4.188 407.016 -6.625 406.445 C-7.306 406.012 -7.986 405.579 -8.688 405.133 C-9.523 403.008 -9.523 403.008 -9.688 400.133 C-8.698 397.528 -7.676 395.26 -6.375 392.82 C-6.012 392.124 -5.649 391.427 -5.274 390.71 C-4.104 388.503 -2.903 386.316 -1.688 384.133 C-1.301 383.436 -0.914 382.738 -0.516 382.02 C6.545 369.506 14.909 359.838 26.562 351.383 C41.955 341.303 58.977 334.212 77.223 331.254 C86.879 329.947 96.586 329.894 106.312 330.133 C104.82 323.98 102.296 318.641 99.438 313.008 C99.195 312.526 99.195 312.526 97.967 310.086 C94.169 302.626 90.089 295.358 85.879 288.125 C81.507 280.581 77.46 272.888 73.496 265.121 C71.24 260.723 68.921 256.422 66.336 252.207 C64.141 248.617 62.196 244.978 60.344 241.199 C57.449 235.305 54.187 229.7 50.812 224.07 C45.678 215.399 40.886 206.612 36.312 197.633 C31.205 187.607 25.79 177.83 20.018 168.172 C16.521 162.306 13.036 156.407 10.312 150.133 C10.312 149.473 10.312 148.813 10.312 148.133 C7.526 148.775 7.526 148.775 4.312 150.133 C2.461 152.657 2.461 152.657 0.902 155.863 C0.614 156.441 0.325 157.019 0.027 157.614 C-0.592 158.858 -1.203 160.106 -1.805 161.358 C-3.419 164.709 -5.098 168.028 -6.766 171.352 C-7.1 172.022 -7.433 172.692 -7.778 173.383 C-10.657 179.144 -13.774 184.746 -17 190.32 C-22.444 199.794 -27.596 209.405 -32.688 219.07 C-33.072 219.801 -33.457 220.531 -33.854 221.284 C-34.625 222.747 -35.396 224.21 -36.167 225.673 C-36.544 226.388 -36.92 227.103 -37.309 227.84 C-37.496 228.195 -37.496 228.195 -38.441 229.99 C-45.527 243.427 -52.756 256.787 -60.248 270.003 C-67.708 283.203 -74.797 296.615 -81.98 309.968 C-84.323 314.323 -86.669 318.678 -89.016 323.031 C-90.094 325.031 -91.17 327.031 -92.246 329.031 C-97.83 339.412 -103.561 349.674 -109.562 359.82 C-115.229 369.412 -120.424 379.189 -125.494 389.107 C-131.885 401.568 -138.82 413.702 -145.82 425.828 C-151.751 436.125 -157.373 446.584 -163.016 457.04 C-172.836 475.21 -182.776 493.311 -193 511.258 C-193.246 511.69 -193.246 511.69 -194.49 513.879 C-195.43 515.523 -196.376 517.163 -197.331 518.798 C-198.233 520.351 -199.116 521.916 -199.978 523.491 C-201.12 525.494 -202.232 527.346 -203.688 529.133 C-204.541 529.518 -205.394 529.904 -206.273 530.301 C-208.688 530.133 -208.688 530.133 -210.539 529.121 C-220.413 519.791 -229.04 509.669 -237.299 498.919 C-238.693 497.125 -240.113 495.355 -241.543 493.59 C-247.586 486.103 -252.781 478.428 -257.688 470.133 C-258.958 468.132 -260.229 466.132 -261.5 464.133 C-278.951 435.596 -292.231 402.575 -298.75 369.695 C-298.92 368.848 -299.09 368 -299.265 367.127 C-300.748 359.417 -301.598 351.694 -302.293 343.879 C-302.688 340.133 -302.688 340.133 -303.688 337.133 C-305.006 328.341 -304.874 319.394 -304.873 310.526 C-304.875 308.137 -304.893 305.748 -304.912 303.359 C-304.939 295.927 -304.744 288.923 -303.176 281.624 C-302.488 278.116 -302.285 274.622 -302.057 271.06 C-299.784 236.089 -286.255 199.165 -269.577 168.539 C-260.927 152.944 -252.067 137.571 -240.886 123.637 C-239.271 121.61 -237.737 119.523 -236.188 117.445 C-232.27 112.433 -227.882 107.844 -223.539 103.203 C-221.322 100.83 -219.172 98.415 -217.062 95.945 C-210.349 88.25 -203.144 81.49 -195.046 75.296 C-191.191 72.345 -187.554 69.251 -183.938 66.008 C-166.153 50.615 -144.724 39.334 -123.688 29.133 C-122.95 28.77 -122.212 28.408 -121.452 28.035 C-100.654 17.93 -77.426 10.158 -54.688 6.133 C-53.637 5.946 -52.586 5.76 -51.504 5.568 C-39.324 3.459 -27.244 1.739 -14.883 1.309 C-11.688 1.133 -11.688 1.133 -9.968 0.63 C-6.659 -0.091 -3.37 -0.01 0 0 Z " transform="translate(617.6875,77.8671875)"/>
    </g>
    <g id="aello-source-blue-node" fill="#166BEB" fill-rule="evenodd">
      <path id="aello-blue-node" d="M0 0 C4.285 1.026 7.081 3.289 10.523 5.953 C15.104 9.795 19.554 13.797 22.215 19.223 C23.864 25.055 23.929 31.03 23.33 37.038 C22.855 39.861 21.904 42.077 20.5 44.562 C18.836 46.855 18.836 46.855 17 49 C16.374 49.739 15.747 50.477 15.102 51.238 C11.501 55.13 7.972 57.91 3.186 60.193 C-0.473 61.544 -3.942 61.682 -7.812 61.625 C-8.206 61.621 -8.206 61.621 -10.195 61.6 C-15.005 61.414 -18.832 60.708 -23.188 58.5 C-27.972 55.384 -31.726 51.668 -35 47 C-37.146 43.353 -38.512 40.2 -39 36 C-39.466 30.292 -39.037 25.005 -37.23 19.551 C-34.805 14.524 -31.088 10.734 -27 7 C-18.227 0.199 -10.927 -0.779 0 0 Z " transform="translate(798,488)"/>
    </g>
    <g id="aello-source-wordmark" fill="currentColor" fill-rule="evenodd">
      <path id="aello-wordmark-A" d="M0 0 C3.694 1.41 7.22 2.963 10.766 4.711 C11.81 5.225 12.854 5.74 13.93 6.27 C22.489 10.881 30.123 16.873 36.198 24.512 C43.314 34.097 47.976 43.461 50.516 55.148 C52.871 69.005 52.772 82.726 49.152 96.352 C45.917 107.171 40.424 116.906 32.965 125.391 C25.374 133.4 16.856 139.336 6.597 143.616 C-11.829 150.713 -30.121 151.655 -49.676 150.434 C-61.303 149.24 -72.124 146.17 -82.422 140.586 C-92.515 134.273 -100.469 126.351 -106.923 116.409 C-110.584 110.471 -113.202 104.367 -115.234 97.711 C-115.49 96.926 -115.746 96.141 -116.01 95.332 C-118.231 88.048 -118.777 81.242 -118.734 73.648 C-118.732 73.058 -118.732 73.058 -118.719 70.072 C-118.494 58.661 -116.416 49.023 -111.848 38.523 C-108.509 31.938 -104.098 26.238 -99.234 20.711 C-98.556 19.938 -97.878 19.164 -97.18 18.367 C-90.51 11.233 -82.797 6.236 -73.922 2.207 C-51.079 -6.65 -23.401 -7.124 0 0 Z M-68.172 21.961 C-75.791 26.406 -81.883 31.413 -86.984 38.648 C-91.197 45.817 -93.959 53.503 -95.234 61.711 C-96.268 73.662 -95.959 85.667 -92.086 97.102 C-88.369 105.766 -84.187 112.55 -77.395 119.172 C-71.386 124 -64.522 127.248 -57.234 129.711 C-52.562 130.835 -48.02 131.361 -43.234 131.711 C-42.215 131.853 -41.195 131.995 -40.145 132.141 C-29.214 133.491 -18.172 131.793 -7.668 128.641 C-0.968 126.056 4.437 122.492 9.766 117.711 C10.466 117.092 11.166 116.473 11.887 115.836 C16.954 111.085 20.799 106.005 23.766 99.711 C28.231 87.343 29.679 75.785 28.766 62.711 C27.463 54.513 25.134 46.982 20.508 40.043 C14.619 32.16 8.688 26.374 0.121 21.402 C-7.02 17.803 -14.816 15.079 -22.843 14.534 C-39.145 14.175 -53.291 14.478 -68.172 21.961 Z " transform="translate(1127.234375,762.2890625)"/>
      <path id="aello-wordmark-E" d="M0 0 C1.712 -0.04 3.424 -0.074 5.137 -0.102 C5.564 -0.12 5.564 -0.12 7.729 -0.215 C10.181 -0.249 12.412 -0.169 14.824 0.273 C17.672 2.234 17.672 2.234 19.824 5.273 C21.389 8.201 22.677 11.209 23.949 14.273 C27.002 21.346 30.282 28.187 33.949 34.961 C38.653 43.729 42.819 52.696 46.887 61.773 C52.398 74.073 58.141 86.235 64.074 98.336 C69.248 108.899 74.4 119.466 79.324 130.148 C79.544 130.62 79.544 130.62 80.653 133.008 C82.78 137.666 84.842 142.22 85.824 147.273 C85.164 148.263 84.504 149.253 83.824 150.273 C80.956 150.633 78.38 150.783 75.512 150.773 C74.752 150.802 73.992 150.83 73.209 150.859 C70.961 150.867 70.961 150.867 66.824 150.273 C63.364 147.739 61.84 145.301 59.727 141.566 C59.061 140.203 58.406 138.834 57.762 137.461 C57.436 136.787 57.111 136.114 56.775 135.42 C55.437 132.651 54.102 129.884 52.829 127.084 C51.552 124.36 50.325 121.826 48.293 119.585 C45.824 118.273 45.824 118.273 41.546 117.781 C39.804 117.711 38.06 117.656 36.316 117.613 C35.395 117.578 34.473 117.542 33.523 117.506 C30.582 117.394 27.641 117.301 24.699 117.211 C21.751 117.116 18.802 117.016 15.854 116.905 C14.02 116.837 12.186 116.777 10.352 116.728 C8.172 116.648 5.996 116.47 3.824 116.273 C3.164 115.613 2.504 114.953 1.824 114.273 C2.157 109.507 3.766 105.554 5.824 101.273 C6.484 100.613 7.144 99.953 7.824 99.273 C14.182 97.704 20.961 97.997 27.477 97.932 C28.391 97.904 29.304 97.876 30.246 97.848 C30.662 97.84 30.662 97.84 32.765 97.803 C33.104 97.716 33.104 97.716 34.824 97.273 C35.154 96.613 35.154 96.613 36.824 93.273 C36.203 90.866 36.203 90.866 34.941 88.105 C34.465 87.043 33.989 85.98 33.499 84.885 C32.946 83.693 32.394 82.501 31.824 81.273 C31.228 79.949 30.631 78.624 30.017 77.259 C28.016 72.816 25.983 68.389 23.949 63.961 C23.26 62.456 22.571 60.952 21.883 59.447 C10.652 34.929 10.652 34.929 6.824 27.273 C5.504 27.273 4.184 27.273 2.824 27.273 C1.33 29.446 1.33 29.446 -0.055 32.469 C-0.312 33.019 -0.312 33.019 -1.614 35.806 C-2.129 36.95 -2.645 38.094 -3.176 39.273 C-3.656 40.307 -4.137 41.34 -4.632 42.405 C-6.139 45.647 -7.626 48.897 -9.113 52.148 C-13.858 62.458 -18.809 72.643 -23.926 82.773 C-28.906 92.638 -33.663 102.548 -38.125 112.656 C-51.888 143.831 -51.888 143.831 -57.336 149.535 C-60.176 151.273 -60.176 151.273 -64.094 151.734 C-65.503 151.706 -66.912 151.678 -68.363 151.648 C-69.78 151.636 -71.197 151.623 -72.656 151.609 C-73.818 151.499 -74.979 151.388 -76.176 151.273 C-76.836 150.613 -77.496 149.953 -78.176 149.273 C-78.547 147.125 -78.547 147.125 -78.176 144.273 C-76.949 141.64 -75.662 139.172 -74.238 136.648 C-68.249 125.671 -62.848 114.424 -57.418 103.164 C-56.72 101.717 -56.022 100.271 -55.324 98.824 C-54.982 98.114 -54.639 97.404 -54.286 96.673 C-51.876 91.689 -49.418 86.732 -46.934 81.785 C-44.104 76.148 -41.339 70.49 -38.676 64.773 C-35.685 58.355 -32.552 52.016 -29.372 45.689 C-26.875 40.706 -24.439 35.696 -22.035 30.668 C-21.696 29.96 -21.357 29.253 -21.007 28.524 C-19.626 25.641 -18.245 22.758 -16.874 19.871 C-15.85 17.717 -14.818 15.567 -13.785 13.418 C-13.187 12.163 -12.588 10.909 -11.972 9.616 C-10.287 6.481 -8.549 3.917 -6.176 1.273 C-4.176 0.273 -4.176 0.273 0 0 Z " transform="translate(144.17578125,760.7265625)"/>
      <path id="aello-wordmark-L1" d="M0 0 C2.141 -0.378 2.141 -0.378 4.668 -0.381 C5.627 -0.389 6.586 -0.398 7.575 -0.407 C8.625 -0.401 9.675 -0.394 10.758 -0.388 C11.312 -0.391 11.312 -0.391 14.114 -0.404 C17.784 -0.417 21.455 -0.409 25.125 -0.398 C27.669 -0.4 30.214 -0.403 32.758 -0.407 C38.095 -0.412 43.431 -0.405 48.768 -0.391 C55.618 -0.374 62.468 -0.384 69.318 -0.402 C74.573 -0.413 79.828 -0.409 85.083 -0.401 C87.61 -0.399 90.136 -0.402 92.662 -0.409 C96.189 -0.416 99.715 -0.405 103.242 -0.388 C104.293 -0.394 105.343 -0.4 106.425 -0.407 C107.384 -0.398 108.343 -0.39 109.332 -0.381 C110.166 -0.38 111 -0.379 111.859 -0.378 C112.212 -0.315 112.212 -0.315 114 0 C114.99 0.99 115.98 1.98 117 3 C117.363 5.812 117.363 5.812 117.312 9 C117.309 10.052 117.305 11.104 117.301 12.188 C117.202 13.116 117.102 14.044 117 15 C116.34 15.99 115.68 16.98 115 18 C111.135 19.288 107.474 19.153 103.445 19.158 C103.009 19.16 103.009 19.16 100.799 19.173 C98.901 19.184 97.004 19.192 95.107 19.199 C92.106 19.211 89.106 19.23 86.106 19.252 C77.575 19.314 69.045 19.368 60.514 19.401 C55.297 19.422 50.081 19.458 44.864 19.502 C42.874 19.516 40.884 19.525 38.893 19.528 C36.113 19.533 33.334 19.556 30.555 19.583 C30.142 19.582 30.142 19.582 28.051 19.574 C25.757 19.608 25.757 19.608 22 20 C21.01 20.99 20.02 21.98 19 23 C18.702 25.835 18.58 28.446 18.602 31.281 C18.599 32.091 18.596 32.901 18.593 33.735 C18.591 35.447 18.596 37.158 18.609 38.87 C18.625 41.49 18.609 44.11 18.59 46.73 C18.592 48.393 18.596 50.056 18.602 51.719 C18.595 52.503 18.589 53.288 18.583 54.096 C18.612 56.311 18.612 56.311 19 60 C19.99 60.99 20.98 61.98 22 63 C25.036 63.379 25.036 63.379 28.811 63.385 C29.516 63.39 29.516 63.39 33.088 63.415 C33.843 63.414 34.597 63.412 35.374 63.411 C37.736 63.406 40.098 63.42 42.46 63.439 C47.473 63.476 52.487 63.49 57.5 63.5 C63.309 63.512 69.118 63.534 74.927 63.58 C77.256 63.594 79.584 63.589 81.912 63.585 C82.618 63.59 82.618 63.59 86.189 63.615 C86.812 63.616 86.812 63.616 89.964 63.621 C90.966 63.746 91.968 63.871 93 64 C93.99 64.99 94.98 65.98 96 67 C96.434 69.523 96.434 69.523 96.438 72.375 C96.457 73.311 96.476 74.247 96.496 75.211 C96 78 96 78 94.39 80.636 C93.996 81.026 93.996 81.026 92 83 C88.92 83.619 88.92 83.619 85.26 83.612 C83.888 83.622 82.517 83.632 81.104 83.642 C79.624 83.629 78.145 83.615 76.621 83.602 C75.087 83.607 73.553 83.615 72.019 83.626 C67.984 83.649 63.949 83.644 59.914 83.632 C53.453 83.614 46.991 83.624 40.529 83.658 C38.272 83.664 36.015 83.65 33.757 83.636 C32.389 83.64 31.021 83.643 29.611 83.647 C28.404 83.643 27.197 83.639 25.953 83.635 C24.979 83.755 24.004 83.876 23 84 C22.01 84.99 21.02 85.98 20 87 C18.639 94.451 18.779 101.986 18.76 109.538 C18.75 111.824 18.719 114.11 18.688 116.396 C18.682 117.84 18.677 119.283 18.672 120.77 C18.663 122.085 18.653 123.401 18.644 124.757 C18.761 125.827 18.879 126.897 19 128 C19.99 128.99 20.98 129.98 22 131 C24.981 131.294 27.756 131.406 30.738 131.385 C31.631 131.39 32.524 131.396 33.444 131.401 C35.384 131.411 37.324 131.414 39.264 131.411 C42.331 131.406 45.398 131.42 48.466 131.439 C54.977 131.476 61.489 131.49 68 131.5 C75.544 131.512 83.088 131.534 90.631 131.58 C93.658 131.594 96.684 131.589 99.71 131.585 C101.561 131.594 103.411 131.604 105.262 131.615 C105.684 131.612 105.684 131.612 107.822 131.597 C110.167 131.621 110.167 131.621 114 132 C114.99 132.99 115.98 133.98 117 135 C117.398 137.812 117.398 137.812 117.375 141 C117.379 141.526 117.379 141.526 117.398 144.188 C117.333 144.652 117.333 144.652 117 147 C116.01 147.99 115.02 148.98 114 150 C111.109 150.338 108.425 150.489 105.527 150.512 C105.086 150.521 105.086 150.521 102.852 150.567 C99.881 150.623 96.909 150.656 93.938 150.688 C91.843 150.719 89.75 150.75 87.656 150.782 C81.765 150.865 75.874 150.92 69.982 150.967 C65.758 151.002 61.534 151.042 57.311 151.083 C49.763 151.152 42.216 151.198 34.669 151.229 C31.679 151.243 28.689 151.261 25.7 151.284 C21.481 151.314 17.262 151.324 13.043 151.328 C11.767 151.34 10.491 151.353 9.176 151.365 C8.592 151.364 8.592 151.364 5.637 151.356 C4.616 151.36 3.595 151.364 2.543 151.367 C1.704 151.246 0.865 151.125 0 151 C-0.99 150.01 -1.98 149.02 -3 148 C-3.378 145.375 -3.378 145.375 -3.381 142.155 C-3.389 140.935 -3.398 139.715 -3.407 138.458 C-3.401 137.118 -3.394 135.777 -3.388 134.396 C-3.393 132.987 -3.399 131.577 -3.404 130.124 C-3.415 126.254 -3.412 122.385 -3.403 118.515 C-3.395 114.468 -3.402 110.422 -3.407 106.375 C-3.413 99.579 -3.405 92.784 -3.391 85.988 C-3.375 78.127 -3.38 70.266 -3.397 62.405 C-3.41 55.66 -3.412 48.915 -3.404 42.17 C-3.4 38.14 -3.399 34.109 -3.409 30.079 C-3.419 25.587 -3.405 21.095 -3.388 16.604 C-3.391 15.933 -3.391 15.933 -3.407 12.542 C-3.398 11.322 -3.39 10.102 -3.381 8.845 C-3.38 7.783 -3.379 6.72 -3.378 5.625 C-3.253 4.759 -3.128 3.893 -3 3 C-2.01 2.01 -1.02 1.02 0 0 Z " transform="translate(343,761)"/>
      <path id="aello-wordmark-L2" d="M0 0 C3.469 -0.398 3.469 -0.398 7.5 -0.375 C8.83 -0.383 10.161 -0.39 11.531 -0.398 C12.676 -0.267 13.821 -0.135 15 0 C15.99 0.99 16.98 1.98 18 3 C18.376 5.313 18.376 5.313 18.379 8.086 C18.387 9.138 18.395 10.189 18.403 11.273 C18.397 12.426 18.391 13.579 18.385 14.768 C18.39 15.982 18.396 17.197 18.401 18.449 C18.411 21.091 18.414 23.733 18.411 26.375 C18.406 30.552 18.42 34.728 18.439 38.904 C18.479 48.524 18.491 58.143 18.503 67.763 C18.514 77.278 18.537 86.794 18.58 96.309 C18.594 100.433 18.589 104.556 18.585 108.679 C18.594 111.197 18.604 113.715 18.615 116.232 C18.609 117.386 18.603 118.539 18.597 119.727 C18.605 120.779 18.613 121.831 18.621 122.914 C18.622 123.829 18.623 124.744 18.624 125.687 C18.748 126.45 18.872 127.214 19 128 C19.99 128.99 20.98 129.98 22 131 C25.523 131.341 25.523 131.341 29.988 131.293 C30.395 131.291 30.395 131.291 32.453 131.28 C34.219 131.268 35.985 131.25 37.751 131.225 C40.546 131.187 43.341 131.168 46.136 131.153 C53.078 131.113 60.019 131.04 66.961 130.969 C72.825 130.91 78.689 130.863 84.554 130.832 C87.308 130.813 90.062 130.775 92.817 130.737 C94.505 130.726 96.194 130.716 97.883 130.707 C99.357 130.691 100.831 130.676 102.35 130.659 C106 131 106 131 108.479 132.329 C108.981 132.88 109.483 133.432 110 134 C110.461 137.031 110.461 137.031 110.375 140.5 C110.362 141.645 110.349 142.789 110.336 143.969 C110.225 144.969 110.114 145.969 110 147 C109.34 147.99 108.68 148.98 108 150 C103.737 151.421 99.517 151.156 95.068 151.161 C94.049 151.166 93.029 151.171 91.978 151.176 C88.6 151.191 85.222 151.198 81.844 151.203 C79.501 151.209 77.158 151.215 74.816 151.22 C69.903 151.231 64.99 151.237 60.078 151.24 C53.772 151.246 47.467 151.27 41.162 151.298 C36.324 151.317 31.485 151.322 26.647 151.324 C24.322 151.327 21.996 151.335 19.671 151.348 C16.424 151.365 13.178 151.363 9.932 151.356 C8.965 151.366 7.999 151.375 7.003 151.384 C4.665 151.37 2.33 151.198 0 151 C-0.99 150.01 -1.98 149.02 -3 148 C-3.378 145.375 -3.378 145.375 -3.381 142.155 C-3.389 140.935 -3.398 139.715 -3.407 138.458 C-3.401 137.118 -3.394 135.777 -3.388 134.396 C-3.393 132.987 -3.399 131.577 -3.404 130.124 C-3.415 126.254 -3.412 122.385 -3.403 118.515 C-3.395 114.468 -3.402 110.422 -3.407 106.375 C-3.413 99.579 -3.405 92.784 -3.391 85.988 C-3.375 78.127 -3.38 70.266 -3.397 62.405 C-3.41 55.66 -3.412 48.915 -3.404 42.17 C-3.4 38.14 -3.399 34.109 -3.409 30.079 C-3.419 25.587 -3.405 21.095 -3.388 16.604 C-3.391 15.933 -3.391 15.933 -3.407 12.542 C-3.398 11.322 -3.39 10.102 -3.381 8.845 C-3.38 7.783 -3.379 6.72 -3.378 5.625 C-3.253 4.759 -3.128 3.893 -3 3 C-2.01 2.01 -1.02 1.02 0 0 Z " transform="translate(579,761)"/>
      <path id="aello-wordmark-O" d="M0 0 C3.688 -0.398 3.688 -0.398 8 -0.375 C9.423 -0.383 10.846 -0.39 12.312 -0.398 C13.529 -0.267 14.746 -0.135 16 0 C16.99 0.99 17.98 1.98 19 3 C19.351 5.35 19.351 5.35 19.318 8.175 C19.313 9.247 19.308 10.318 19.303 11.422 C19.283 12.597 19.263 13.772 19.242 14.983 C19.233 16.22 19.224 17.458 19.214 18.733 C19.194 21.424 19.168 24.115 19.136 26.807 C19.09 31.058 19.069 35.309 19.058 39.561 C19.025 51.651 18.978 63.74 18.832 75.829 C18.743 83.218 18.717 90.605 18.726 97.995 C18.719 100.819 18.689 103.643 18.638 106.466 C18.568 110.405 18.572 114.337 18.594 118.276 C18.555 119.455 18.516 120.634 18.477 121.849 C18.539 125.079 18.539 125.079 18.917 127.888 C19.275 128.585 19.632 129.282 20 130 C24 131.504 27.783 131.241 32 131 C33.397 131.048 34.793 131.096 36.232 131.145 C37.511 131.154 38.79 131.164 40.108 131.174 C41.579 131.187 43.05 131.201 44.565 131.214 C45.33 131.22 46.094 131.225 46.882 131.23 C49.307 131.246 51.733 131.27 54.158 131.295 C61.044 131.365 67.93 131.426 74.817 131.477 C79.052 131.509 83.286 131.55 87.521 131.597 C89.129 131.613 90.737 131.625 92.345 131.634 C94.582 131.646 96.82 131.671 99.057 131.697 C100.329 131.707 101.6 131.718 102.911 131.728 C103.93 131.818 104.95 131.908 106 132 C106.495 132.33 106.495 132.33 109 134 C109.469 137.152 109.469 137.152 109.5 140.938 C109.531 142.184 109.562 143.431 109.594 144.715 C109.398 145.799 109.202 146.883 109 148 C107.079 149.68 107.079 149.68 104 151 C100.653 151.292 97.494 151.42 94.148 151.404 C93.161 151.411 92.173 151.418 91.156 151.425 C87.895 151.443 84.635 151.439 81.375 151.434 C79.107 151.438 76.84 151.443 74.572 151.449 C69.821 151.458 65.07 151.456 60.318 151.446 C54.228 151.435 48.139 151.455 42.049 151.484 C37.367 151.502 32.685 151.502 28.002 151.496 C25.757 151.496 23.511 151.502 21.266 151.515 C18.127 151.529 14.99 151.519 11.852 151.502 C11.388 151.507 11.388 151.507 9.04 151.531 C6.44 151.501 6.44 151.501 2 151 C-0.739 149.339 -0.739 149.339 -3 147 C-3.624 144.267 -3.624 144.267 -3.621 141.072 C-3.633 139.86 -3.644 138.647 -3.655 137.397 C-3.642 136.07 -3.629 134.742 -3.615 133.375 C-3.621 131.974 -3.626 130.574 -3.632 129.131 C-3.642 125.292 -3.629 121.454 -3.606 117.615 C-3.586 113.6 -3.592 109.584 -3.594 105.568 C-3.594 98.825 -3.574 92.082 -3.542 85.34 C-3.505 77.54 -3.496 69.741 -3.503 61.942 C-3.51 54.442 -3.499 46.943 -3.479 39.443 C-3.471 36.25 -3.468 33.056 -3.47 29.863 C-3.471 25.407 -3.447 20.952 -3.42 16.496 C-3.423 15.166 -3.426 13.837 -3.429 12.467 C-3.417 11.257 -3.406 10.047 -3.394 8.801 C-3.391 7.747 -3.387 6.693 -3.383 5.607 C-3.257 4.747 -3.13 3.886 -3 3 C-2.01 2.01 -1.02 1.02 0 0 Z " transform="translate(801,761)"/>
    </g>
    <g id="aello-source-descriptor" fill="#166BEB" fill-rule="evenodd">
      <path id="aello-descriptor-S" d="M0 0 C1.527 2.335 1.481 3.902 1.062 6.625 C-1.938 8.625 -1.938 8.625 -4.312 8.438 C-6.938 7.625 -6.938 7.625 -9.16 6.09 C-12.647 4.251 -15.079 4.291 -19 4.375 C-19.604 4.383 -19.604 4.383 -22.66 4.422 C-25.272 4.584 -27.455 4.857 -29.938 5.625 C-30.02 6.862 -30.102 8.1 -30.188 9.375 C-30.211 9.723 -30.211 9.723 -30.328 11.484 C-29.738 14.719 -28.585 15.684 -25.938 17.625 C-23.068 18.549 -20.153 19.046 -17.188 19.562 C-9.031 21.18 -3.268 23.039 2.5 29.25 C5.226 33.393 5.393 36.747 5.062 41.625 C2.935 47.758 -1.45 51.764 -7.09 54.773 C-16.114 57.472 -28.68 57.014 -37.109 52.828 C-39.799 51.058 -41.465 49.501 -42.938 46.625 C-43 43.875 -43 43.875 -41.938 41.625 C-39.008 40.612 -37.512 40.387 -34.621 41.586 C-33.88 42.053 -33.139 42.519 -32.375 43 C-26.356 46.734 -20.965 47.278 -13.938 46.625 C-8.908 44.596 -8.908 44.596 -6.938 42.625 C-6.179 36.745 -6.179 36.745 -6.938 34.625 C-11.397 32.179 -15.975 31.037 -20.905 29.888 C-30.048 27.758 -37.496 25.788 -42.938 17.625 C-43.642 12.866 -43.45 8.784 -41.5 4.375 C-36.8 -0.669 -31.394 -5.031 -24.238 -5.418 C-7.186 -5.099 -7.186 -5.099 0 0 Z " transform="translate(170.9375,992.375)"/>
      <path id="aello-descriptor-O" d="M0 0 C0.598 0.41 1.196 0.82 1.812 1.242 C2.431 1.631 3.05 2.021 3.688 2.422 C9.422 6.599 12.631 12.597 14.812 19.242 C16.04 28.451 15.455 37.26 9.891 44.871 C4.517 51.236 -0.292 54.61 -8.188 57.242 C-19.362 58.148 -28.756 58.118 -38.188 51.242 C-44.192 46.116 -48.379 38.124 -49.188 30.242 C-49.311 29.067 -49.435 27.891 -49.562 26.68 C-49.443 18.761 -45.313 10.411 -39.93 4.707 C-29.778 -3.829 -11.883 -6.73 0 0 Z M-34.996 14.363 C-38.772 20.318 -39.166 26.365 -38.188 33.242 C-35.459 39.934 -30.729 44.343 -24.188 47.242 C-19.244 49.23 -15.576 49.776 -10.562 47.742 C-4.927 44.787 0.148 41.494 2.75 35.492 C4.642 29.294 4.903 22.985 2.25 16.992 C-0.705 11.835 -4.775 8.372 -10.125 5.867 C-20.344 3.782 -28.35 6.203 -34.996 14.363 Z " transform="translate(302.1875,990.7578125)"/>
      <path id="aello-descriptor-F" d="M0 0 C0.784 -0.001 1.568 -0.003 2.375 -0.004 C4.03 -0.003 5.684 0.009 7.338 0.03 C9.867 0.058 12.393 0.05 14.922 0.037 C16.531 0.043 18.141 0.052 19.75 0.062 C20.127 0.061 20.127 0.061 22.036 0.054 C25.245 0.111 27.545 0.317 30.391 1.859 C31.875 3.496 31.875 3.496 31.75 6.121 C30.875 8.496 30.875 8.496 28.875 9.496 C26.952 9.614 25.024 9.675 23.098 9.707 C21.945 9.735 20.792 9.764 19.604 9.793 C17.164 9.845 14.723 9.889 12.283 9.926 C11.129 9.957 9.974 9.988 8.785 10.02 C7.724 10.039 6.664 10.059 5.571 10.08 C2.875 10.496 2.875 10.496 1.031 11.877 C-0.576 14.128 -0.524 15.755 -0.5 18.496 C-0.508 19.362 -0.515 20.229 -0.523 21.121 C-0.037 24.018 0.554 24.739 2.875 26.496 C5.295 26.805 5.295 26.805 8.129 26.719 C9.148 26.7 10.167 26.681 11.217 26.662 C11.748 26.645 11.748 26.645 14.438 26.559 C16.543 26.499 18.648 26.448 20.754 26.406 C21.688 26.377 22.622 26.347 23.584 26.317 C25.875 26.496 25.875 26.496 27.875 28.496 C27.319 33.052 27.319 33.052 25.875 34.496 C24.203 34.617 22.527 34.676 20.852 34.707 C19.831 34.735 18.81 34.764 17.758 34.793 C15.594 34.845 13.43 34.889 11.266 34.926 C10.754 34.941 10.754 34.941 8.164 35.02 C7.693 35.029 7.693 35.029 5.311 35.08 C2.875 35.496 2.875 35.496 1.07 36.754 C-0.42 38.927 -0.507 40.219 -0.531 42.84 C-0.553 43.674 -0.575 44.508 -0.598 45.367 C-0.607 46.235 -0.616 47.102 -0.625 47.996 C-0.643 49.715 -0.674 51.434 -0.719 53.152 C-0.722 53.533 -0.722 53.533 -0.74 55.459 C-1.226 58.029 -2.045 58.948 -4.125 60.496 C-7.467 60.252 -8.73 59.891 -11.125 57.496 C-11.43 55.27 -11.43 55.27 -11.507 52.467 C-11.54 51.419 -11.573 50.371 -11.607 49.291 C-11.631 48.155 -11.655 47.019 -11.68 45.848 C-11.709 44.684 -11.737 43.52 -11.767 42.32 C-11.824 39.854 -11.876 37.387 -11.923 34.921 C-12 31.143 -12.108 27.367 -12.219 23.59 C-12.27 21.197 -12.32 18.803 -12.367 16.41 C-12.403 15.278 -12.44 14.145 -12.477 12.979 C-12.491 11.924 -12.505 10.87 -12.519 9.784 C-12.54 8.857 -12.56 7.93 -12.582 6.976 C-11.319 0.117 -5.91 -0.088 0 0 Z " transform="translate(409.125,987.50390625)"/>
      <path id="aello-descriptor-T" d="M0 0 C2.486 0.063 4.971 0.104 7.457 0.145 C9.043 0.184 10.628 0.224 12.213 0.266 C12.954 0.276 13.694 0.285 14.457 0.295 C19.58 0.466 19.58 0.466 22.018 2.347 C22.352 2.831 22.686 3.315 23.03 3.813 C21.971 6.27 21.971 6.27 20.03 8.813 C16.744 9.45 16.744 9.45 12.967 9.5 C6.21 9.633 6.21 9.633 4.03 11.813 C3.778 13.697 3.778 13.697 3.774 16.016 C3.771 16.45 3.771 16.45 3.753 18.645 C3.754 19.585 3.755 20.525 3.756 21.493 C3.736 23.473 3.715 25.454 3.694 27.434 C3.671 30.564 3.655 33.693 3.649 36.822 C3.639 39.838 3.605 42.852 3.569 45.868 C3.574 46.803 3.579 47.739 3.584 48.703 C3.486 55.162 3.486 55.162 1.164 58.474 C0.46 58.916 -0.245 59.358 -0.97 59.813 C-3.658 59.188 -3.658 59.188 -5.97 57.813 C-7.113 55.528 -7.076 54.328 -7.036 51.794 C-7.027 50.966 -7.017 50.138 -7.007 49.285 C-6.992 48.39 -6.978 47.494 -6.963 46.571 C-6.945 44.681 -6.928 42.792 -6.912 40.903 C-6.881 37.918 -6.845 34.934 -6.799 31.949 C-6.757 29.073 -6.733 26.197 -6.713 23.321 C-6.694 22.429 -6.675 21.537 -6.656 20.618 C-6.631 14.491 -6.631 14.491 -8.256 11.246 C-11.495 8.539 -16.126 9.344 -20.166 9.413 C-22.283 9.379 -22.283 9.379 -25.97 8.813 C-27.97 6.278 -27.97 6.278 -28.97 3.813 C-26.73 1.198 -25.36 0.394 -21.935 0.11 C-14.634 -0.415 -7.311 -0.197 0 0 Z " transform="translate(545.970458984375,988.18701171875)"/>
      <path id="aello-descriptor-W" d="M0 0 C2.875 -0.438 2.875 -0.438 6 0 C9.253 2.667 10.531 4.741 11.438 8.812 C12.584 13.539 14.024 18.099 15.625 22.688 C17.386 27.801 18.669 32.587 19 38 C19.495 37.835 19.495 37.835 22 37 C23.29 34.232 24.394 31.547 25.438 28.688 C25.745 27.873 26.052 27.059 26.368 26.22 C28.097 21.595 29.717 16.943 31.25 12.25 C34.13 3.563 34.13 3.563 36 1 C39.438 -0.125 39.438 -0.125 43 0 C46.284 2.648 47.692 5.097 49 9.062 C49.164 9.548 49.164 9.548 49.992 12.004 C50.325 12.993 50.657 13.981 51 15 C51.707 16.834 52.415 18.667 53.125 20.5 C55.105 25.902 56.165 31.319 57 37 C58.32 37 59.64 37 61 37 C61.196 36.325 61.393 35.651 61.595 34.956 C62.5 31.845 63.406 28.735 64.312 25.625 C64.621 24.564 64.93 23.503 65.248 22.41 C65.865 20.294 66.485 18.178 67.108 16.063 C67.687 14.075 68.25 12.083 68.794 10.085 C69.041 9.198 69.288 8.312 69.543 7.398 C69.648 7.009 69.648 7.009 70.18 5.037 C71.114 2.716 72.03 1.532 74 0 C77.062 -0.312 77.062 -0.312 80 0 C80.33 0.33 80.33 0.33 82 2 C81.634 6.827 80.442 11.151 78.891 15.719 C78.682 16.339 78.473 16.96 78.258 17.599 C77.595 19.568 76.923 21.534 76.25 23.5 C75.597 25.429 74.945 27.359 74.294 29.289 C73.859 30.575 73.421 31.86 72.98 33.145 C71.84 36.474 70.739 39.81 69.697 43.172 C69.483 43.85 69.269 44.529 69.048 45.228 C68.457 47.107 67.878 48.99 67.3 50.873 C65.947 54.128 64.746 55.823 62 58 C58.165 58.734 56.589 58.383 53.312 56.25 C50.589 52.422 49.87 49.302 48.891 44.758 C47.765 40.007 46.304 35.397 44.812 30.75 C44.675 30.321 44.675 30.321 43.981 28.148 C43.323 26.098 42.662 24.049 42 22 C41.01 22 40.02 22 39 22 C38.625 23.149 38.25 24.297 37.863 25.48 C29.141 52.025 29.141 52.025 25 58 C22.125 59.125 22.125 59.125 19 59 C13.232 54.805 12.007 48.994 10.062 42.375 C9.723 41.267 9.384 40.159 9.035 39.018 C8.344 36.761 7.659 34.503 6.98 32.242 C5.578 27.604 4.101 22.99 2.625 18.375 C1.944 16.234 1.267 14.092 0.606 11.944 C0.198 10.634 -0.23 9.33 -0.677 8.032 C-1.289 6.164 -1.289 6.164 -2 3 C-1.34 2.01 -0.68 1.02 0 0 Z " transform="translate(646,989)"/>
      <path id="aello-descriptor-A" d="M0 0 C0.762 -0.04 1.524 -0.08 2.309 -0.121 C5.736 0.728 6.65 2.524 8.562 5.438 C9.816 7.948 10.966 10.423 12.062 13 C12.389 13.755 12.716 14.51 13.053 15.288 C13.796 17.008 14.536 18.729 15.273 20.452 C16.472 23.228 17.691 25.995 18.918 28.76 C20.032 31.272 21.135 33.789 22.237 36.307 C22.784 37.554 23.336 38.8 23.89 40.044 C24.677 41.811 25.448 43.585 26.219 45.359 C26.671 46.386 27.122 47.413 27.588 48.472 C28.633 51.653 28.822 54.111 28.562 57.438 C27.562 58.438 27.562 58.438 25.375 58.938 C20.934 58.148 19.104 54.976 16.562 51.438 C15.526 49.793 14.511 48.134 13.562 46.438 C11.017 43.892 4.228 45.106 0.812 45.062 C-0.286 45.025 -1.384 44.988 -2.516 44.949 C-10.659 44.86 -10.659 44.86 -14.516 47.719 C-15.15 48.616 -15.784 49.513 -16.438 50.438 C-16.974 51.116 -17.51 51.794 -18.062 52.492 C-18.516 53.093 -18.97 53.694 -19.438 54.312 C-20.949 56.105 -20.949 56.105 -22.438 57.438 C-25.25 57.625 -25.25 57.625 -27.438 56.438 C-29.134 52.002 -27.274 48.6 -25.562 44.438 C-25.249 43.653 -24.935 42.868 -24.612 42.06 C-21.464 34.292 -18.005 26.666 -14.516 19.047 C-12.341 14.279 -10.38 9.45 -8.508 4.555 C-6.584 0.75 -3.969 0.114 0 0 Z M-1.438 16.438 C-3.646 18.646 -4.049 19.934 -4.938 22.875 C-5.854 25.9 -6.647 27.752 -8.438 30.438 C-7.92 33.955 -7.92 33.955 -6.438 35.438 C-4.294 35.563 -2.147 35.613 0 35.625 C1.174 35.639 2.349 35.653 3.559 35.668 C6.562 35.438 6.562 35.438 8.562 33.438 C8.296 28.099 6.454 21.954 3.562 17.438 C1.047 16.52 1.047 16.52 -1.438 16.438 Z " transform="translate(828.4375,988.5625)"/>
      <path id="aello-descriptor-R" d="M0 0 C2.215 0.008 4.428 -0.02 6.643 -0.052 C8.064 -0.054 9.486 -0.053 10.908 -0.05 C12.193 -0.052 13.478 -0.054 14.802 -0.056 C20.278 0.69 23.954 2.83 27.799 6.884 C31.103 11.901 32.388 16.413 31.486 22.446 C29.993 26.82 28.086 29.874 24.736 33.071 C22.486 35.446 22.486 35.446 22.096 38.212 C22.587 42.282 24.067 44.287 26.486 47.571 C30.486 53.029 30.486 53.029 30.486 57.446 C27.148 58.3 25.22 58.789 22.041 57.302 C19.122 55.182 17.381 53.011 15.299 50.071 C14.625 49.135 13.95 48.199 13.256 47.235 C11.486 44.446 11.486 44.446 10.42 41.677 C9.486 39.446 9.486 39.446 6.736 38.134 C3.463 37.441 0.814 37.076 -2.514 37.446 C-4.154 38.528 -4.154 38.528 -5.514 40.446 C-5.955 43.696 -5.955 43.696 -6.076 47.446 C-6.306 54.135 -6.306 54.135 -8.514 57.446 C-11.014 57.759 -11.014 57.759 -13.514 57.446 C-18.286 52.674 -16.685 41.853 -16.717 35.387 C-16.722 34.476 -16.728 33.566 -16.734 32.627 C-16.743 30.722 -16.75 28.817 -16.754 26.912 C-16.764 23.992 -16.795 21.072 -16.826 18.151 C-16.833 16.292 -16.838 14.434 -16.842 12.575 C-16.854 11.703 -16.866 10.831 -16.879 9.933 C-16.876 9.125 -16.873 8.316 -16.87 7.483 C-16.874 6.774 -16.877 6.065 -16.881 5.334 C-15.421 -2.166 -5.828 -0.034 0 0 Z M-4.99 10.091 C-6.91 13.059 -7.049 14.927 -7.014 18.446 C-7.024 19.477 -7.034 20.509 -7.045 21.571 C-6.514 24.446 -6.514 24.446 -4.943 26.79 C-1.586 29.078 0.827 28.978 4.861 28.946 C6.148 28.956 7.434 28.967 8.76 28.977 C13.807 28.258 16.763 26.058 20.424 22.634 C22.079 19.226 21.509 17.025 20.486 13.446 C15.694 8.776 12.084 8.219 5.611 8.134 C5.251 8.119 5.251 8.119 3.428 8.046 C0.018 8.005 -2.121 8.185 -4.99 10.091 Z " transform="translate(954.513671875,988.553955078125)"/>
      <path id="aello-descriptor-E" d="M0 0 C0.879 -0 1.758 -0.001 2.663 -0.002 C4.52 0.001 6.377 0.011 8.234 0.027 C11.082 0.051 13.93 0.048 16.779 0.041 C18.582 0.047 20.385 0.054 22.188 0.062 C22.615 0.062 22.615 0.062 24.779 0.06 C30.796 0.132 30.796 0.132 33.027 2.363 C32.777 4.926 32.777 4.926 32.027 7.363 C29.246 8.754 26.886 8.545 23.777 8.609 C22.53 8.642 21.282 8.675 19.996 8.709 C17.35 8.77 14.705 8.827 12.059 8.881 C10.811 8.915 9.563 8.949 8.277 8.984 C7.128 9.009 5.978 9.034 4.793 9.06 C2.027 9.363 2.027 9.363 0.027 11.363 C-0.238 13.676 -0.238 13.676 -0.223 16.363 C-0.228 17.25 -0.233 18.137 -0.238 19.051 C0.027 21.363 0.027 21.363 2.027 23.363 C4.318 23.635 4.318 23.635 7.148 23.672 C7.657 23.684 7.657 23.684 10.232 23.748 C12.383 23.783 14.534 23.814 16.686 23.842 C17.195 23.855 17.195 23.855 19.773 23.922 C20.709 23.935 21.644 23.949 22.607 23.963 C25.425 24.429 26.369 25.068 28.027 27.363 C27.84 29.488 27.84 29.488 27.027 31.363 C24.516 32.619 22.68 32.538 19.871 32.609 C18.849 32.642 17.827 32.675 16.773 32.709 C14.609 32.77 12.445 32.827 10.281 32.881 C9.259 32.915 8.237 32.949 7.184 32.984 C6.243 33.009 5.303 33.034 4.334 33.06 C2.027 33.363 2.027 33.363 0.027 35.363 C-0.238 38.113 -0.238 38.113 -0.223 41.363 C-0.228 42.436 -0.233 43.508 -0.238 44.613 C0.027 47.363 0.027 47.363 2.027 49.363 C4.977 49.65 4.977 49.65 8.715 49.707 C9.373 49.722 10.031 49.736 10.71 49.751 C12.816 49.798 14.921 49.832 17.027 49.863 C19.799 49.904 22.569 49.958 25.34 50.02 C25.957 50.029 25.957 50.029 29.078 50.076 C32.027 50.363 32.027 50.363 34.027 52.363 C33.84 54.363 33.84 54.363 33.027 56.363 C29.193 58.92 26.011 58.687 21.562 58.699 C21.148 58.703 21.148 58.703 19.048 58.719 C17.294 58.73 15.54 58.734 13.785 58.734 C11.103 58.738 8.422 58.775 5.74 58.812 C4.035 58.818 2.33 58.822 0.625 58.824 C-0.176 58.839 -0.977 58.853 -1.803 58.868 C-5.229 58.84 -7.427 58.786 -10.185 56.651 C-12.309 53.933 -12.474 52.685 -12.474 49.275 C-12.484 48.264 -12.493 47.253 -12.503 46.211 C-12.492 45.126 -12.48 44.04 -12.469 42.922 C-12.47 41.803 -12.472 40.683 -12.473 39.53 C-12.472 37.166 -12.46 34.801 -12.439 32.437 C-12.41 28.811 -12.419 25.186 -12.432 21.561 C-12.425 19.264 -12.417 16.968 -12.406 14.672 C-12.409 13.584 -12.412 12.497 -12.415 11.376 C-12.402 10.368 -12.39 9.36 -12.377 8.322 C-12.371 7.435 -12.366 6.547 -12.36 5.633 C-11.973 3.363 -11.973 3.363 -10.696 1.577 C-7.575 -0.621 -3.684 -0.04 0 0 Z " transform="translate(1080.97265625,988.63671875)"/>
    </g>
    <g id="aello-source-icon">
      <use href="#aello-source-icon-navy"/>
      <use href="#aello-source-blue-node"/>
    </g>
    <g id="aello-logo-stacked">
      <use href="#aello-source-icon"/>
      <use href="#aello-source-wordmark"/>
      <use href="#aello-source-descriptor"/>
    </g>
    <g id="aello-icon">
      <use href="#aello-source-icon" transform="matrix(.2289348172 0 0 .2289348172 -53.427663 1.402226)"/>
    </g>
    <g id="aello-icon-small">
      <use href="#aello-icon"/>
    </g>
    <g id="aello-logo-horizontal">
      <use href="#aello-source-icon" transform="matrix(.378 0 0 .378 -87.128 3.903)"/>
      <use href="#aello-source-wordmark" transform="matrix(.646 0 0 .646 307.51 -391.022)"/>
      <use href="#aello-source-descriptor" transform="matrix(.719 0 0 .719 258.187 -486.934)"/>
    </g>
  </defs>
  <use href="#aello-logo-stacked"/>
</svg>
